<svg xmlns="http://www.w3.org/2000/svg" width="110" height="110">
<g><ellipse cx="51.5" cy="52.5" fill="green" rx="50" ry="50"/><ellipse cx="51.5" cy="52.5" fill="green" rx="50" ry="50"/><g transform="translate(11.965 11.897)"><ellipse cx="39.535" cy="40.5" fill="#E1E4ED" rx="39.535" ry="39.31"/><path fill="green" fill-rule="nonzero" d="M52.31 21.516c2.294-1.419 4.492-1.726 6.19-.865 3.806 1.93 3.255 9.113 1.698 12.226-.88 1.757-2.438 3.04-4.637 3.821-.852 2.695-2.048 5.011-3.575 6.927a5.615 5.615 0 003.607 1.304h.064l2.146-2.116a1.397 1.397 0 011.956 0 1.35 1.35 0 010 1.929l-.19.187H60c.764 0 1.383.61 1.383 1.364 0 .753-.62 1.363-1.383 1.363h-.432l.19.188a1.35 1.35 0 010 1.928c-.27.267-.624.4-.978.4s-.708-.133-.978-.4l-2.146-2.116h-.064a8.404 8.404 0 01-5.487-2.027 15.99 15.99 0 01-.913.77c-2.65 2.07-5.892 3.275-9.68 3.604.478 1.435.571 2.99.244 4.507l-.013.063 1.651 2.598a1.416 1.416 0 01-.418 1.944 1.387 1.387 0 01-1.924-.423l-.146-.23-.093.43a1.396 1.396 0 01-1.656 1.075 1.407 1.407 0 01-1.065-1.674l.093-.43-.228.148c-.647.42-1.508.231-1.924-.423a1.416 1.416 0 01.419-1.944l2.57-1.67.014-.063a5.721 5.721 0 00-.507-3.827 31.796 31.796 0 01-3.407-.283c-3.328-.45-5.215 1.016-5.714 1.476-3.92 3.613-4.679 9.998-4.686 10.062a1.403 1.403 0 01-1.391 1.247 1.4 1.4 0 01-1.158-.615c-.063-.093-1.538-2.295-2.185-5.403-.879-4.22.169-8.093 3.03-11.197a14.707 14.707 0 016.21-3.985l-.292.076a5.682 5.682 0 00-2.397-.53h-.064l-2.154 2.116c-.271.267-.627.4-.982.4s-.71-.133-.982-.4a1.347 1.347 0 010-1.928l.191-.188h-.433c-.767 0-1.389-.61-1.389-1.363 0-.754.622-1.364 1.389-1.364h.433l-.19-.188a1.347 1.347 0 010-1.928 1.406 1.406 0 011.963 0l2.154 2.116h.064c2.345 0 4.568.96 6.152 2.643l-.154-.158a16.297 16.297 0 013.802.067c3.513.475 6.386-.013 8.604-1.456a8.658 8.658 0 01-1.924-5.463v-.065l-2.124-2.19a1.442 1.442 0 010-1.995 1.34 1.34 0 011.936 0l.187.194v-.44c0-.78.613-1.411 1.37-1.411.755 0 1.368.631 1.368 1.41v.441l.188-.194a1.34 1.34 0 011.935 0c.815.84.227 1.762 0 1.996l-2.123 2.189v.065c0 1.332.45 2.606 1.259 3.618 1.002-1.198 1.79-2.703 2.36-4.514-.417-1.153-1.065-3.882.589-6.978.866-1.622 2.531-3.326 4.345-4.448z"/></g></g>
</svg>