<svg xmlns="http://www.w3.org/2000/svg" width="110" height="110"><circle cx="51.5" cy="50.172" fill="#ff9800" r="50"/><circle cx="51.5" cy="50.172" fill="#ff9800" r="50"/><g transform="translate(11.965 11.897)"><ellipse cx="39.535" cy="38.31" fill="#E1E4ED" rx="39.535" ry="39.31"/><path fill="#ff9800" d="M54.896 29.133a2.078 2.078 0 00-.874-.14c-.405.028-.732.192-.925.46-1.14 1.595-2.074 4.607-2.827 7.028-.345 1.119-.81 2.616-1.145 3.327-.35-1.991.045-9.287.199-12.096l.002-.046c.107-1.952.121-2.294.098-2.444-.17-1.07-.599-1.774-1.278-2.088-.686-.32-1.577-.178-2.537.399-.481.29-.614 1.288-1.028 5.81l-.001.02c-.228 2.485-.751 8.206-1.395 9.159-.727-1.333-1.728-8.907-2.16-12.185-.301-2.296-.477-3.614-.596-4.012-.249-.834-1.3-1.544-2.34-1.583-.867-.043-1.578.397-1.917 1.162-.635.705-.41 3.045.29 8.586.335 2.637 1.024 8.084.59 8.695-.865-.094-2.35-3.506-4.414-10.144-.58-1.86-.759-2.418-.937-2.663-.35-.853-1.542-1.51-2.61-1.436-.092.006-.18.018-.268.035-.56.11-1.836.625-1.564 2.998.754 3.29 1.573 5.705 2.367 8.05l.016.046c.476 1.404.925 2.731 1.343 4.204.984 3.476.601 5.633.596 5.658-.032.222-.1.357-.204.405a.396.396 0 01-.139.031c-.311.022-.78-.185-1.02-.319-.551-1.051-3.293-6.062-5.778-6.757l-.09-.026-.09.008c-.911.086-1.581.43-1.991 1.023-.649.937-.38 2.13-.315 2.369l.036.086c.02.036 2.013 3.664 2.322 5.352.266 1.447 1.642 3.015 2.748 4.275l.046.051c.36.413.672.769.917 1.099 3.21 3.343 8.287 6.156 8.328 6.179.633.466.985.917 1.023 1.306a.566.566 0 01-.114.41l-.11.116.702.681 13.392-.94.571-2.613c1.766-7.38 1.397-13.672 1.391-13.714.007-.232.502-2.47.9-4.28l.011-.046c.794-3.603 1.78-8.087 1.97-9.793.082-.73-.386-1.399-1.19-1.703z"/></g></svg>