<svg xmlns="http://www.w3.org/2000/svg" width="110" height="110">
<g><ellipse cx="51.5" cy="52.5" fill="#343a40" rx="50" ry="50"/><ellipse cx="51.5" cy="52.5" fill="#343a40" rx="50" ry="50"/><g transform="translate(11.965 11.897)"><ellipse cx="39.535" cy="40.5" fill="#E1E4ED" rx="39.535" ry="39.31"/><path fill="#343a40" fill-rule="nonzero" d="M54.85 33.665c-.455-5.744-6.914-5.157-6.914-5.157-2.726-4.8-6.984-1.323-6.984-1.323-3.272-4.704-7.374-.345-7.374-.345-7.072-.762-6.798 5.013-6.798 5.013-.167 1.836.996 7.515.996 7.515-1.049-3.273-3.325-.556-3.325-.556-2.797 4.312-.691 6.673-.691 6.673 3.785 4.431 11.854 9.75 11.854 9.75 2.92 1.671 1.685 3.161 1.685 3.161l17.67-2.916.407-3.346c2.686-8.114-.525-18.47-.525-18.47z"/></g></g></svg>