<svg xmlns="http://www.w3.org/2000/svg" width="110" height="110">
<g><ellipse cx="51.5" cy="52.5" fill="#B1B4C5" rx="50" ry="50"/><ellipse cx="51.5" cy="52.5" fill="#B1B4C5" rx="50" ry="50"/><g transform="translate(11.965 11.897)"><ellipse cx="39.535" cy="40.5" fill="#E1E4ED" rx="39.535" ry="39.31"/><path fill="#8A90AC" fill-rule="nonzero" d="M29.214 38.974l4.271-5.97c-1.775-.295-5.035-.36-7.705 2.295-4.208 4.184-5.913 13.225-6.268 15.413l10.696 10.636c1.926-.164 10.452-1.296 18.667-9.464.087-.177 2.088-1.647.452-3.274-.78-.776-2.073-.762-2.871.032a1.01 1.01 0 01-1.436.014.996.996 0 01.014-1.428l2.903-2.886c1.476-1.467.085-3.941-1.974-3.347l-2.377 2.023a1.022 1.022 0 01-1.435-.099c-.369-.424-.29-1.067.13-1.429 8.301-7.242 7.09-6.37 12.43-11.347 1.996-1.652-.515-4.575-2.481-2.901L39.31 38.794a1.01 1.01 0 01-1.322-.014c-.427-.367-.437-.895-.158-1.312l9.012-13.931c1.318-1.774-1.275-3.744-2.663-1.956l-13.325 18.53a1.009 1.009 0 01-1.41.246.976.976 0 01-.23-1.383z"/></g></g></svg>