<svg xmlns="http://www.w3.org/2000/svg" width="110" height="110"><circle cx="51.5" cy="52.5" fill="#B1B4C5" r="50"/><circle cx="51.5" cy="52.5" fill="#B1B4C5" r="50"/><g transform="translate(11.965 11.897)"><ellipse cx="39.535" cy="40.5" fill="#E1E4ED" rx="39.535" ry="39.31"/><path fill="#8A90AC" d="M56.968 42.321l-.613-.61c-1.465-1.456-3.86-1.774-5.647-.752l-3.82 2.17.797-17.382a2.654 2.654 0 00-2.659-2.644 2.66 2.66 0 00-.904.158l.095-.933c0-1.474-1.211-2.673-2.698-2.673-1.375 0-2.528 1.025-2.674 2.34l-2.45 14.721c-.032.2-.381.18-.418.054l-2.895-11.802a2.598 2.598 0 00-2.487-1.865 2.58 2.58 0 00-2.027.975 2.546 2.546 0 00-.49 2.186l.563 2.376a2.376 2.376 0 00-.949.12 2.445 2.445 0 00-1.652 2.708l1.703 9.739c0 3.842.678 6.685 1.246 8.392a9.63 9.63 0 01.488 3.045c0 .911-.127 1.818-.38 2.693l-1.32 4.599a.863.863 0 00.833 1.098h15.607a.866.866 0 00.823-1.135c-.009-.022-.734-2.248-.048-5.276.87-.703 3.917-3.166 5.011-4.16 1.809-1.642 6.764-6.716 6.974-6.932a.858.858 0 00-.009-1.21z"/></g></svg>